<mxfile host="drawio-plugin" modified="2022-09-18T12:53:05.893Z" agent="5.0 (Windows NT 6.2; Win64; x64) AppleWebKit/537.36 (KHTML, like Gecko) Chrome/98.0.4758.102 Safari/537.36" etag="cXnXCpgS7FB8cEbTSKpQ" version="15.5.4" type="embed"><diagram id="5eE1gzarFb5pzeaA6T64" name="Page-1"><mxGraphModel dx="1033" dy="743" grid="1" gridSize="10" guides="1" tooltips="1" connect="1" arrows="1" fold="1" page="1" pageScale="1" pageWidth="850" pageHeight="1100" math="0" shadow="0"><root><mxCell id="0"/><mxCell id="1" parent="0"/><mxCell id="2" value="" style="rounded=0;whiteSpace=wrap;html=1;" vertex="1" parent="1"><mxGeometry x="280" y="280" width="200" height="130" as="geometry"/></mxCell></root></mxGraphModel></diagram></mxfile>